<svg width="1200" height="800" viewBox="0 0 1200 800" fill="none" xmlns="http://www.w3.org/2000/svg">
  <defs>
    <linearGradient id="g1" x1="0" y1="0" x2="0" y2="1">
      <stop offset="0%" stop-color="#FAFBFF"/>
      <stop offset="100%" stop-color="#FFFFFF"/>
    </linearGradient>
    <linearGradient id="g2" x1="0" y1="0" x2="1" y2="1">
      <stop offset="0%" stop-color="#4F6DFF"/>
      <stop offset="100%" stop-color="#3B5BFE"/>
    </linearGradient>
  </defs>
  <rect x="0" y="0" width="1200" height="800" rx="24" fill="url(#g1)"/>
  <!-- Header bar -->
  <rect x="40" y="40" width="1120" height="56" rx="12" fill="#F2F6FF"/>
  <!-- Left stat cards -->
  <rect x="40" y="120" width="340" height="120" rx="12" fill="#F6F7FB"/>
  <rect x="40" y="252" width="340" height="120" rx="12" fill="#F6F7FB"/>
  <rect x="40" y="384" width="340" height="120" rx="12" fill="#F6F7FB"/>
  <!-- Main chart -->
  <rect x="400" y="120" width="760" height="340" rx="16" fill="#F6F7FB"/>
  <!-- Chart lines -->
  <path d="M430 420 C 520 320, 600 380, 700 300 S 900 340, 1140 260" stroke="url(#g2)" stroke-width="6" fill="none"/>
  <path d="M430 440 C 520 360, 600 420, 700 350 S 900 380, 1140 300" stroke="#A5B4FC" stroke-width="4" fill="none"/>
  <!-- Right list -->
  <rect x="400" y="480" width="360" height="200" rx="14" fill="#F6F7FB"/>
  <rect x="780" y="480" width="380" height="200" rx="14" fill="#F6F7FB"/>
  <!-- Accents -->
  <circle cx="84" cy="68" r="10" fill="#3E63F2"/>
  <rect x="1040" y="52" width="96" height="24" rx="12" fill="#3E63F2" opacity="0.9"/>
</svg>

